PathFileType	4	(X/Y/Z)	E:\Qualisys_Data\Carbon_Farble_Plate\Data\Amateur_Runner\S2\T1\S2T1V23_c3d.trc
DataRate	CameraRate	NumFrames	NumMarkers	Units	OrigDataRate	OrigDataStartFrame	OrigNumFrames
200.000000	200.000000	5	39	mm	200.000000	78	314
Frame#	Time	LSHO			RSHO			LICST			RICST			LASIS			LHEEL			RASIS			LTROC			RTROC			SACR			LTH1			LSK4			LTH2			LTH3			RHM5			LSK2			LTH4			RTH1			LTOE			RTH2			RTH3			RTH4			LLEP			RLEP			LSK1			LSK3			RSK1			LHM5			RSK2			LFT1			RSK3			RSK4			LLME			RLME			RTOE			RHEEL			RFT1			RFT2			LFT2			
		X1	Y1	Z1	X2	Y2	Z2	X3	Y3	Z3	X4	Y4	Z4	X5	Y5	Z5	X6	Y6	Z6	X7	Y7	Z7	X8	Y8	Z8	X9	Y9	Z9	X10	Y10	Z10	X11	Y11	Z11	X12	Y12	Z12	X13	Y13	Z13	X14	Y14	Z14	X15	Y15	Z15	X16	Y16	Z16	X17	Y17	Z17	X18	Y18	Z18	X19	Y19	Z19	X20	Y20	Z20	X21	Y21	Z21	X22	Y22	Z22	X23	Y23	Z23	X24	Y24	Z24	X25	Y25	Z25	X26	Y26	Z26	X27	Y27	Z27	X28	Y28	Z28	X29	Y29	Z29	X30	Y30	Z30	X31	Y31	Z31	X32	Y32	Z32	X33	Y33	Z33	X34	Y34	Z34	X35	Y35	Z35	X36	Y36	Z36	X37	Y37	Z37	X38	Y38	Z38	X39	Y39	Z39	

79	0.39	-1670.786254882812	1506.436889648438	-450.6975708007812	-1567.320922851562	1488.288452148438	-169.802978515625	-1659.801879882812	1041.410034179688	-443.3494873046875	-1612.598876953125	1024.374633789062	-148.8718566894531	-1601.27392578125	991.9859619140624	-429.7713012695312	-1501.004150390625	110.5963592529297	-353.5563049316406	-1564.537109375	971.1170654296876	-176.7684478759766	-1721.65380859375	919.0576171875	-445.6090393066406	-1723.986206054688	950.4712524414062	-129.5415344238281	-1729.920166015625	1077.987915039062	-277.9810485839844	-1519.901000976562	701.0154418945312	-465.5064086914062	-1525.003662109375	319.3456115722656	-438.2826843261719	-1599.77001953125	674.7301025390625	-460.9229125976562	-1488.252197265625	606.4227294921875	-440.31201171875	-2259.77880859375	267.4726867675781	-157.0561218261719	-1535.793823242188	416.9830932617188	-449.4545593261719	-1568.42138671875	581.8506469726562	-434.96142578125	-1713.3935546875	664.3262939453125	-143.2473754882812	-1275.4326171875	203.5665893554688	-375.3382568359375	-1778.799682617188	701.0248413085938	-135.0637817382812	-1757.050659179688	577.0401611328125	-152.8899536132812	-1828.608154296875	616.6437377929688	-152.8778991699219	-1513.710693359375	553.3330078125	-434.2270812988281	-1827.203369140625	573.8623046875	-148.4631500244141	-1458.39599609375	426.4668579101562	-437.7454223632812	-1447.2080078125	328.3170776367188	-430.7458190917969	-1918.386840820312	488.9032897949219	-140.4547576904297	-1311.9755859375	158.5162200927734	-436.4375305175781	-1952.009887695312	561.56640625	-137.3599853515625	-1477.974487304688	93.88446807861328	-325.8169555664062	-2011.07568359375	445.85302734375	-145.787353515625	-2041.376831054688	518.4349975585938	-148.9229278564453	-1449.092895507812	144.4663238525391	-409.1945190429688	-2198.038818359375	399.8665771484375	-174.8314514160156	-2228.78369140625	210.0056762695312	-211.486328125	-2205.572265625	456.0419006347656	-235.0535583496094	-2223.841552734375	437.7529602050781	-270.289306640625	-2235.783203125	454.5955810546875	-216.0776519775391	-1486.791625976562	83.68201446533203	-376.7752075195312
80	0.395	-1651.500854492188	1504.228881835938	-452.1593627929688	-1547.9375	1485.849243164062	-171.1242523193359	-1640.449096679688	1038.839965820312	-443.3780822753906	-1592.926025390625	1022.844055175781	-148.9379730224609	-1581.657836914062	989.8193969726562	-430.0458068847656	-1478.783935546875	107.7650527954102	-352.7105102539062	-1544.580078125	969.0072021484376	-177.2255554199219	-1702.464721679688	916.9064331054688	-445.3300170898438	-1704.261840820312	947.564208984375	-130.0282592773438	-1710.365478515625	1075.434692382812	-278.4004211425781	-1502.895874023438	696.3241577148438	-467.7247924804688	-1505.18115234375	316.0569763183594	-437.7165222167969	-1582.953979492188	669.962646484375	-463.0656127929688	-1470.662353515625	601.6187133789062	-441.3879699707031	-2244.052978515625	277.6207885742188	-156.7581481933594	-1516.803588867188	413.7114868164062	-449.6304321289062	-1551.962158203125	577.3886108398438	-435.719970703125	-1689.342163085938	661.8316650390625	-142.3847045898438	-1254.35888671875	202.9899291992188	-374.1920471191406	-1757.013427734375	697.4317626953125	-135.3665161132812	-1734.663940429688	572.705322265625	-152.8526306152344	-1805.732666015625	612.6622314453125	-153.3373718261719	-1495.434204101562	549.84130859375	-433.5377807617188	-1803.2451171875	569.6582641601562	-148.3783264160156	-1438.786254882812	424.0401306152344	-437.4309997558594	-1427.886962890625	325.8429260253906	-430.4728393554688	-1896.368408203125	487.1139221191406	-140.5921173095703	-1290.742309570312	158.5057678222656	-435.7412109375	-1927.1298828125	561.1879272460938	-137.9598083496094	-1455.63916015625	91.13355255126952	-325.0843200683594	-1989.4013671875	446.82275390625	-145.8316650390625	-2017.79541015625	521.0045776367188	-150.140869140625	-1427.932250976562	142.4341430664062	-408.5036926269531	-2177.575927734375	408.1814270019531	-175.2442474365234	-2215.27392578125	218.8507080078125	-210.8655395507812	-2183.5166015625	463.0480651855469	-236.258544921875	-2202.60595703125	445.83251953125	-272.3751831054688	-2214.2470703125	463.0503845214844	-217.6744537353516	-1464.05029296875	81.16065979003906	-376.6869506835938
81	0.4	-1631.81298828125	1500.5	-453.6251525878906	-1528.3486328125	1483.6591796875	-171.9709167480469	-1621.61181640625	1036.084594726562	-444.0108032226562	-1573.675170898438	1020.374572753906	-149.3052368164062	-1561.763061523438	987.0634765625	-429.9883117675781	-1457.537475585938	105.3468399047852	-350.8277893066406	-1524.92578125	967.1264038085938	-177.3470916748047	-1682.950439453125	914.0882568359376	-445.5520629882812	-1683.524169921875	944.4244995117188	-130.4838104248047	-1691.931274414062	1073.184448242188	-279.0593872070312	-1485.679321289062	692.1007690429688	-469.3692626953125	-1485.89111328125	313.0491943359375	-437.0859375	-1565.583251953125	664.8020629882812	-465.0589294433594	-1453.02490234375	597.5696411132812	-442.2199401855469	-2226.910400390625	288.0939331054688	-156.6876525878906	-1498.6865234375	410.5481262207031	-449.7893676757812	-1534.332763671875	572.7838745117188	-436.5617065429688	-1666.333984375	658.6594848632812	-142.1296539306641	-1234.490356445312	201.5980682373047	-373.8197937011719	-1734.631591796875	692.6928100585938	-135.4783935546875	-1710.115112304688	569.3347778320312	-152.5160675048828	-1781.977172851562	607.4110717773438	-152.9230194091797	-1477.871826171875	547.192626953125	-434.1568603515625	-1779.21337890625	564.91259765625	-148.1128540039062	-1421.1748046875	421.2408447265625	-437.3984375	-1408.3779296875	323.24267578125	-429.9411010742188	-1872.277099609375	484.8908081054688	-140.5449981689453	-1270.967651367188	156.7931671142578	-434.777099609375	-1901.823486328125	559.8652954101562	-138.7286071777344	-1434.55419921875	88.01470947265625	-323.5244140625	-1968.185546875	448.0311889648438	-147.2132415771484	-1993.684204101562	522.464599609375	-151.3993988037109	-1406.705688476562	139.7358551025391	-407.0258483886719	-2157.1298828125	415.4315795898438	-176.8448944091797	-2200.24658203125	226.9929046630859	-210.9346923828125	-2160.361572265625	470.1945190429688	-238.0590057373047	-2180.945068359375	453.7463684082031	-273.6863708496094	-2191.229736328125	471.5596923828125	-219.0406036376953	-1444.039428710938	78.4597396850586	-375.6109313964844
82	0.405	-1612.438842773438	1497.2685546875	-455.3354797363281	-1508.83984375	1480.848510742188	-173.3540496826172	-1602.085571289062	1033.372680664062	-444.419921875	-1554.488403320312	1017.855224609375	-149.5549926757812	-1543.330078125	984.6375732421876	-430.7112731933594	-1439.963623046875	101.5010681152344	-350.4122314453125	-1504.994262695312	964.9830322265624	-177.5697784423828	-1663.673706054688	911.0481567382812	-445.9985961914062	-1663.451538085938	940.6192626953124	-130.9232635498047	-1671.652221679688	1069.949340820312	-278.9320983886719	-1467.324462890625	687.6575927734375	-470.5048522949219	-1467.3408203125	309.5126037597656	-436.5493469238281	-1547.547729492188	660.2858276367188	-467.0992431640625	-1435.208251953125	593.6730346679688	-441.945556640625	-2209.714599609375	297.5303039550781	-156.6230316162109	-1479.80615234375	407.2521667480469	-449.6049499511719	-1516.044921875	568.4712524414062	-437.2423095703125	-1643.896606445312	654.8026123046875	-142.1618041992188	-1215.920166015625	199.0915985107422	-374.4110107421875	-1712.4697265625	687.94970703125	-135.4287719726562	-1685.730102539062	564.6158447265625	-152.0884857177734	-1757.1884765625	601.8856811523438	-152.7444458007812	-1459.2548828125	544.0567016601562	-434.2357482910156	-1754.143676757812	559.9210815429688	-147.6978149414062	-1402.593017578125	418.010498046875	-437.0391235351562	-1390.172119140625	320.0703430175781	-429.2869873046875	-1850.888305664062	482.2342834472656	-142.64111328125	-1253.03955078125	153.916015625	-434.6505432128906	-1876.399169921875	558.6129760742188	-139.4640350341797	-1415.6484375	85.40130615234375	-321.5786437988281	-1946.0185546875	448.6885070800781	-148.1037902832031	-1968.689086914062	524.1995239257812	-152.1757659912109	-1389.131713867188	136.6323699951172	-405.398193359375	-2135.13427734375	422.6252746582031	-177.5706787109375	-2185.4716796875	236.4609985351562	-210.2688140869141	-2135.0048828125	476.6580505371094	-238.6752319335938	-2157.80615234375	462.0299377441406	-275.9741516113281	-2166.341796875	481.0403442382812	-218.2673950195312	-1424.092407226562	75.19048309326172	-372.9730834960938
83	0.41	-1592.465942382812	1492.8916015625	-456.6231384277344	-1489.322631835938	1477.537475585938	-174.4075317382812	-1583.256713867188	1030.69189453125	-444.8992614746094	-1535.396362304688	1014.616882324219	-149.7536163330078	-1524.17041015625	982.1595458984376	-430.8305053710938	-1422.617065429688	98.31751251220705	-347.9651489257812	-1485.732299804688	962.3453979492188	-178.3531646728516	-1644.0693359375	908.2719116210938	-446.4145202636719	-1643.604248046875	936.6652221679688	-131.0939025878906	-1653.181762695312	1067.275512695312	-279.5992126464844	-1449.296508789062	683.3450927734375	-471.261474609375	-1449.356079101562	306.333984375	-435.85595703125	-1529.020385742188	655.1820678710938	-468.8816223144531	-1416.468994140625	590.5014038085938	-440.5902709960938	-2192.4521484375	307.8338317871094	-158.4314422607422	-1461.409545898438	403.7852478027344	-449.9790954589844	-1497.214233398438	563.9591064453125	-436.8551940917969	-1620.326416015625	650.5462646484375	-141.8509063720703	-1198.846435546875	195.8198547363281	-375.5249328613281	-1689.408203125	682.7335205078125	-135.4154663085938	-1661.813720703125	558.9127807617188	-152.1114196777344	-1733.505859375	595.8887939453125	-152.8206481933594	-1440.198852539062	540.36328125	-434.2901000976562	-1729.18798828125	554.3900146484375	-147.5851135253906	-1383.84619140625	414.3455810546875	-436.5575866699219	-1372.097290039062	316.63134765625	-428.2571411132812	-1825.755493164062	479.4254760742188	-141.6755981445312	-1237.4169921875	149.5216064453125	-435.2648010253906	-1849.907592773438	556.5135498046875	-139.7419586181641	-1398.016967773438	82.79522705078125	-319.0964965820312	-1923.296752929688	448.4705200195312	-148.3155364990234	-1943.552978515625	525.0980224609375	-152.5955352783203	-1372.381591796875	132.8473968505859	-403.3792724609375	-2111.927490234375	430.2095642089844	-179.4359741210938	-2169.320068359375	245.0382385253906	-210.5172729492188	-2110.263916015625	483.1464233398438	-239.9011688232422	-2133.905029296875	468.6884155273438	-277.8086242675781	-2139.782470703125	487.3886413574219	-218.7984619140625	-1406.34716796875	71.1108169555664	-369.9067077636719
